<?xml version="1.0" encoding="UTF-8" standalone="no"?>
<svg
   xmlns:dc="http://purl.org/dc/elements/1.1/"
   xmlns:cc="http://creativecommons.org/ns#"
   xmlns:rdf="http://www.w3.org/1999/02/22-rdf-syntax-ns#"
   xmlns:svg="http://www.w3.org/2000/svg"
   xmlns="http://www.w3.org/2000/svg"
   height="24"
   width="24"
   id="svg4"
   version="1.1"
   viewBox="0 0 24 24">
  <metadata
     id="metadata10">
    <rdf:RDF>
      <cc:Work
         rdf:about="">
        <dc:format>image/svg+xml</dc:format>
        <dc:type
           rdf:resource="http://purl.org/dc/dcmitype/StillImage" />
        <dc:title></dc:title>
      </cc:Work>
    </rdf:RDF>
  </metadata>
  <defs
     id="defs8" />
  <path
     style="fill:#ffffff;fill-opacity:0.49803922;stroke-width:0.04069063"
     id="path2"
     d="m 24,3.9830493 c -0.662637,1.064142 -1.493873,1.997382 -2.454501,2.740593 0.0078,0.228034 0.01568,0.456059 0.01568,0.688317 3e-6,7.0056137 -4.95605,15.0880427 -14.0094722,15.0880427 -2.7799378,0 -5.3677501,-0.874121 -7.5517068,-2.381658 0.38817184,0.05065 0.7763437,0.07601 1.1762783,0.07601 2.3094264,0 4.4306483,-0.848775 6.1166472,-2.271862 -2.1525892,-0.04645 -3.9718998,-1.57932 -4.5992482,-3.686498 0.3058324,0.05912 0.6077438,0.09712 0.9292599,0.09712 0.4509067,0 0.8861296,-0.06753 1.297827,-0.185796 -2.2584543,-0.485622 -3.95621596,-2.630806 -3.95621596,-5.2024846 0,-0.02108 0,-0.04645 0,-0.06761 C 1.6311059,9.2699473 2.387845,9.5148703 3.1955561,9.5402013 1.8742035,8.5942933 1.0076784,6.9685193 1.0076784,5.1316023 c 0,-0.971244 0.2430976,-1.883362 0.6665577,-2.6645848 2.4270543,3.2093258 6.0578337,5.3207218 10.1473609,5.5445308 -0.08626,-0.3885 -0.12547,-0.793881 -0.12547,-1.207719 0,-2.930615 2.203561,-5.3038317 4.920765,-5.3038317 1.415454,0 2.693677,0.6418716 3.59549,1.6722267 1.121385,-0.236475 2.176115,-0.6840924 3.12498,-1.2879518 -0.368568,1.2372818 -1.148832,2.2760858 -2.164353,2.9348468 0.995916,-0.126686 1.944781,-0.409613 2.82699,-0.836117 z" />
</svg>
