<?xml version="1.0" encoding="UTF-8" standalone="no"?>
<svg
   xmlns:dc="http://purl.org/dc/elements/1.1/"
   xmlns:cc="http://creativecommons.org/ns#"
   xmlns:rdf="http://www.w3.org/1999/02/22-rdf-syntax-ns#"
   xmlns:svg="http://www.w3.org/2000/svg"
   xmlns="http://www.w3.org/2000/svg"
   version="1.1"
   viewBox="0 0 24 24"
   xml:space="preserve"
   id="svg5"
   width="24"
   height="24"><metadata
     id="metadata11"><rdf:RDF><cc:Work
         rdf:about=""><dc:format>image/svg+xml</dc:format><dc:type
           rdf:resource="http://purl.org/dc/dcmitype/StillImage" /><dc:title></dc:title></cc:Work></rdf:RDF></metadata><defs
     id="defs9" /><g
     id="info"
     transform="translate(-3.0750001,3)" /><g
     id="icons"
     transform="matrix(1.2681638,0,0,1.1650486,-3.8996036,-1.9660201)"
     style="fill:#ffffff;fill-opacity:0.49803922"><path
       d="M 20.3,3.7 18.4,5.6 C 14.9,2.1 9.2,2.1 5.7,5.6 c -3.5,3.5 -3.5,9.2 0,12.7 1.7,1.8 4,2.7 6.3,2.7 2.3,0 4.6,-0.9 6.4,-2.6 0.8,-0.8 0.8,-2 0,-2.8 -0.8,-0.8 -2,-0.8 -2.8,0 -1.9,2 -5.1,1.9 -7.1,0 C 7.5,14.6 7,13.3 7,12 7,10.7 7.5,9.4 8.5,8.5 c 1.9,-2 5.1,-2 7.1,0 l -1.8,1.8 C 13.2,10.9 13.6,12 14.5,12 H 21 c 0.6,0 1,-0.4 1,-1 V 4.4 C 22,3.5 20.9,3.1 20.3,3.7 Z"
       id="update"
       style="fill:#ffffff;fill-opacity:0.49803922" /></g></svg>