<?xml version="1.0" encoding="UTF-8" standalone="no"?>
<svg
   xmlns:dc="http://purl.org/dc/elements/1.1/"
   xmlns:cc="http://creativecommons.org/ns#"
   xmlns:rdf="http://www.w3.org/1999/02/22-rdf-syntax-ns#"
   xmlns:svg="http://www.w3.org/2000/svg"
   xmlns="http://www.w3.org/2000/svg"
   xml:space="preserve"
   viewBox="0 0 24.000001 24.000001"
   height="24"
   width="24"
   y="0px"
   x="0px"
   id="Capa_1"
   version="1.1"><metadata
     id="metadata41"><rdf:RDF><cc:Work
         rdf:about=""><dc:format>image/svg+xml</dc:format><dc:type
           rdf:resource="http://purl.org/dc/dcmitype/StillImage" /><dc:title></dc:title></cc:Work></rdf:RDF></metadata><defs
     id="defs39" /><g
     style="fill:#ffffff;fill-opacity:0.49803922"
     transform="matrix(0.05435327,0,0,0.05107016,1.1478345e-5,0.72485775)"
     id="g4"><path
       style="fill:#ffffff;fill-opacity:0.49803922"
       id="path2"
       d="m 405.584,262.377 h -26.899 v 124.201 c 0,22 -17.7,39.799 -39.801,39.799 h -236.3 c -22,0 -39.8,-17.699 -39.8,-39.799 V 262.377 h -26.9 c -30,0 -50.2,-36.699 -23.3,-64.299 l 159.2,-162.1 c 13.5,-14.1 31.2,-20.8 49,-20.8 17.8,0 35.5,6.7 49.6,20.8 l 36.101,36.7 v -32.4 c 0,-14.1 11.6,-25.1 25.7,-25.1 h 21.399 c 13.5,0 25.101,11 25.101,25.1 v 106.5 l 50.199,51.4 c 26.801,27.5 7.301,64.199 -23.3,64.199 z" /></g><g
     transform="translate(2.1151449e-4,-402.377)"
     id="g6" /><g
     transform="translate(2.1151449e-4,-402.377)"
     id="g8" /><g
     transform="translate(2.1151449e-4,-402.377)"
     id="g10" /><g
     transform="translate(2.1151449e-4,-402.377)"
     id="g12" /><g
     transform="translate(2.1151449e-4,-402.377)"
     id="g14" /><g
     transform="translate(2.1151449e-4,-402.377)"
     id="g16" /><g
     transform="translate(2.1151449e-4,-402.377)"
     id="g18" /><g
     transform="translate(2.1151449e-4,-402.377)"
     id="g20" /><g
     transform="translate(2.1151449e-4,-402.377)"
     id="g22" /><g
     transform="translate(2.1151449e-4,-402.377)"
     id="g24" /><g
     transform="translate(2.1151449e-4,-402.377)"
     id="g26" /><g
     transform="translate(2.1151449e-4,-402.377)"
     id="g28" /><g
     transform="translate(2.1151449e-4,-402.377)"
     id="g30" /><g
     transform="translate(2.1151449e-4,-402.377)"
     id="g32" /><g
     transform="translate(2.1151449e-4,-402.377)"
     id="g34" /></svg>